<svg xmlns="http://www.w3.org/2000/svg" xmlns:xlink="http://www.w3.org/1999/xlink" width="59.972" height="60.628" viewBox="0 0 59.972 60.628">
  <defs>
    <filter id="Path_114" x="16.234" y="21.531" width="27.46" height="26.954" filterUnits="userSpaceOnUse">
      <feOffset dy="2" input="SourceAlpha"/>
      <feGaussianBlur stdDeviation="2.5" result="blur"/>
      <feFlood flood-opacity="0.161"/>
      <feComposite operator="in" in2="blur"/>
      <feComposite in="SourceGraphic"/>
    </filter>
    <filter id="Path_115" x="0" y="0" width="59.972" height="60.628" filterUnits="userSpaceOnUse">
      <feOffset dy="2" input="SourceAlpha"/>
      <feGaussianBlur stdDeviation="2.5" result="blur-2"/>
      <feFlood flood-opacity="0.161"/>
      <feComposite operator="in" in2="blur-2"/>
      <feComposite in="SourceGraphic"/>
    </filter>
  </defs>
  <g id="Group_1285" data-name="Group 1285" transform="translate(8.5 6.5)">
    <g transform="matrix(1, 0, 0, 1, -8.5, -6.5)" filter="url(#Path_114)">
      <path id="Path_114-2" data-name="Path 114" d="M32.533,48.408l-.49,2.972a1.079,1.079,0,0,0,.425,1.045,1.189,1.189,0,0,0,1.143.1l2.678-1.4,2.678,1.4a.922.922,0,0,0,.49.131,1,1,0,0,0,.621-.2,1.079,1.079,0,0,0,.425-1.045l-.49-2.972,2.156-2.123a1.077,1.077,0,0,0,.261-1.111,1.1,1.1,0,0,0-.882-.751L38.575,44l-1.339-2.711a1.11,1.11,0,0,0-1.96,0L33.937,44l-2.972.457a1.1,1.1,0,0,0-.882.751,1.077,1.077,0,0,0,.261,1.111Z" transform="translate(-6.29 -13.67)" fill="#fff"/>
    </g>
    <g transform="matrix(1, 0, 0, 1, -8.5, -6.5)" filter="url(#Path_115)">
      <path id="Path_115-2" data-name="Path 115" d="M38.644,4.634h-4.59V2.1a2.1,2.1,0,0,0-2.1-2.1h-.35a2.1,2.1,0,0,0-2.1,2.1V4.634H13.377V2.1a2.1,2.1,0,0,0-2.1-2.1h-.35a2.1,2.1,0,0,0-2.1,2.1V4.634h-4.5A4.31,4.31,0,0,0,0,8.962V39.3a4.31,4.31,0,0,0,4.328,4.328H38.644A4.31,4.31,0,0,0,42.972,39.3V8.962A4.366,4.366,0,0,0,38.644,4.634Zm-.568,34.1H4.9V15.126h33.18V38.732Z" transform="translate(8.5 6.5)" fill="none" stroke="#fff" stroke-width="2"/>
    </g>
  </g>
</svg>
