<svg width="26" height="32" viewBox="0 0 26 32" fill="none" xmlns="http://www.w3.org/2000/svg">
<path opacity="0.2" fill-rule="evenodd" clip-rule="evenodd" d="M0.487061 3.17511C0.487061 1.51825 1.83021 0.17511 3.48706 0.17511H20.2871C21.9439 0.17511 23.2871 1.51826 23.2871 3.17511V5.64393C23.2871 6.19621 22.8393 6.64393 22.2871 6.64393C21.7348 6.64393 21.2871 6.19621 21.2871 5.64393V3.17511C21.2871 2.62283 20.8393 2.17511 20.2871 2.17511H3.48706C2.93478 2.17511 2.48706 2.62283 2.48706 3.17511V23.3613C2.48706 24.0925 3.24618 24.5765 3.90908 24.2679L5.86504 23.3574C6.36574 23.1243 6.96057 23.3413 7.19365 23.842C7.42672 24.3427 7.20977 24.9375 6.70908 25.1706L4.75312 26.0811C2.76441 27.0068 0.487061 25.5549 0.487061 23.3613V3.17511Z" fill="white"/>
<path d="M7.84621 29.8709C6.52021 30.4901 5 29.5222 5 28.0588V6.87671C5 5.77214 5.89543 4.87671 7 4.87671H23.8C24.9046 4.87671 25.8 5.77214 25.8 6.87671V28.0588C25.8 29.5222 24.2798 30.4901 22.9538 29.8709L16.2462 26.7387C15.7099 26.4883 15.0901 26.4883 14.5538 26.7387L7.84621 29.8709Z" fill="white"/>
</svg>
