<svg width="32" height="33" viewBox="0 0 32 33" fill="none" xmlns="http://www.w3.org/2000/svg">
<path opacity="0.4" d="M21.2635 1.93231C21.2635 1.25478 21.9411 0.70755 22.7749 0.70755C23.6088 0.70755 24.2863 1.25478 24.2863 1.93231V7.32644C24.2863 8.00397 23.6088 8.5512 22.7749 8.5512C21.9411 8.5512 21.2635 8.00397 21.2635 7.32644C21.2635 7.3525 21.2635 1.93231 21.2635 1.93231Z" fill="white"/>
<path opacity="0.4" d="M7.71326 1.93231C7.71326 1.25478 8.39077 0.70755 9.22464 0.70755C10.0585 0.70755 10.736 1.25478 10.736 1.93231V7.32644C10.736 8.00397 10.0585 8.5512 9.22464 8.5512C8.39077 8.5512 7.71326 8.00397 7.71326 7.32644V1.93231Z" fill="white"/>
<path fill-rule="evenodd" clip-rule="evenodd" d="M26.84 3.86063H29.5761C30.9312 3.88668 32.0256 4.95509 31.9995 6.31014V30.2841C31.9995 31.6131 30.9312 32.7075 29.5761 32.7075H2.42342C1.09445 32.7075 0 31.6391 0 30.2841V6.28408C0 4.95509 1.06839 3.86063 2.42342 3.86063H5.39406C5.86311 3.86063 6.22792 4.22545 6.22792 4.6945C6.22792 5.16356 5.86311 5.52838 5.39406 5.52838H2.44948C2.24101 5.52838 2.03254 5.63261 1.90225 5.76291C1.7459 5.91926 1.66773 6.10167 1.66773 6.31014V12.5121H30.3579V6.31014C30.3579 6.10167 30.2536 5.91926 30.1233 5.76291C29.967 5.60655 29.7846 5.52838 29.5761 5.52838H26.84C26.371 5.52838 26.0061 5.16356 26.0061 4.6945C26.0061 4.22545 26.371 3.86063 26.84 3.86063ZM21.9932 21.2157C22.0453 21.1636 22.0974 21.0854 22.0974 21.0072C22.0974 20.8248 21.9671 20.6684 21.8368 20.6684L17.902 20.3297L16.3385 16.7075C16.2864 16.6294 16.2343 16.5772 16.1561 16.5512C15.9998 16.473 15.8174 16.5512 15.7392 16.7075L14.1757 20.3297L10.267 20.6684C10.1627 20.6684 10.0845 20.7206 10.0324 20.7727C9.9282 20.903 9.9282 21.0854 10.0585 21.1896L13.0291 23.7955L12.1953 27.7043C12.1692 27.7824 12.1692 27.8606 12.2213 27.9388C12.3256 28.0952 12.508 28.1212 12.6643 28.043L16.0519 26.0105L19.4395 28.017C19.4916 28.0691 19.5958 28.0952 19.674 28.0691C19.8564 28.017 19.9346 27.8606 19.9085 27.6782L19.0225 23.8215L21.9932 21.2157ZM1.66766 30.2841V14.1798H30.3839V30.2841C30.3839 30.4925 30.2796 30.701 30.1493 30.8313C29.993 30.9877 29.8106 31.0658 29.6021 31.0658H2.44941C2.24095 31.0658 2.03248 30.9877 1.90219 30.8313C1.74584 30.675 1.66766 30.4925 1.66766 30.2841Z" fill="white"/>
<path opacity="0.8" d="M13.1594 5.52839C12.6904 5.52839 12.3256 5.16357 12.3256 4.69452C12.3256 4.22546 12.6904 3.86064 13.1594 3.86064H18.7359C19.2049 3.86064 19.5698 4.22546 19.5698 4.69452C19.5698 5.16357 19.2049 5.52839 18.7359 5.52839H13.1594Z" fill="white"/>
</svg>
