<svg xmlns="http://www.w3.org/2000/svg" xmlns:xlink="http://www.w3.org/1999/xlink" width="71.008" height="67.114" viewBox="0 0 71.008 67.114">
  <defs>
    <filter id="Path_385" x="0" y="26.178" width="29.184" height="40.935" filterUnits="userSpaceOnUse">
      <feOffset dy="3" input="SourceAlpha"/>
      <feGaussianBlur stdDeviation="3" result="blur"/>
      <feFlood flood-opacity="0.161"/>
      <feComposite operator="in" in2="blur"/>
      <feComposite in="SourceGraphic"/>
    </filter>
    <filter id="Path_384" x="12.147" y="25.387" width="58.861" height="41.727" filterUnits="userSpaceOnUse">
      <feOffset dy="3" input="SourceAlpha"/>
      <feGaussianBlur stdDeviation="3" result="blur-2"/>
      <feFlood flood-opacity="0.161"/>
      <feComposite operator="in" in2="blur-2"/>
      <feComposite in="SourceGraphic"/>
    </filter>
    <filter id="Path_387" x="14.528" y="0" width="45.088" height="42.082" filterUnits="userSpaceOnUse">
      <feOffset dy="3" input="SourceAlpha"/>
      <feGaussianBlur stdDeviation="3" result="blur-3"/>
      <feFlood flood-opacity="0.161"/>
      <feComposite operator="in" in2="blur-3"/>
      <feComposite in="SourceGraphic"/>
    </filter>
  </defs>
  <g id="Group_1293" data-name="Group 1293" transform="translate(426.327 -1181.922)">
    <g transform="matrix(1, 0, 0, 1, -426.33, 1181.92)" filter="url(#Path_385)">
      <path id="Path_385-2" data-name="Path 385" d="M917,433.908a1.868,1.868,0,0,1,2.007-1.106c1.042.06,2.1-.043,3.13.069a4.358,4.358,0,0,1,4.017,4.417q.058,6,0,11.992a4.4,4.4,0,0,1-3.792,4.38.953.953,0,0,0-.182.071H918.1l-1.1-1.1Z" transform="translate(-907 -399.62)" fill="none" stroke="#fff" stroke-width="2"/>
    </g>
    <g transform="matrix(1, 0, 0, 1, -426.33, 1181.92)" filter="url(#Path_384)">
      <path id="Path_384-2" data-name="Path 384" d="M1021.941,449.812c-.954-.1-1.916-.153-2.862-.3-1.566-.25-3.122-.563-4.705-.854v-.585q0-8.688-.009-17.376a.765.765,0,0,1,.414-.749,10.412,10.412,0,0,1,12.175.721,5.078,5.078,0,0,0,3.473,1.227c1.625-.043,3.253-.032,4.879,0a2.978,2.978,0,0,1,2.187,4.978,3.029,3.029,0,0,1-2.4.992q-4.381-.008-8.763,0a1.473,1.473,0,0,0-1.62,1.394,1.455,1.455,0,0,0,1.473,1.587c.647.02,1.294.005,1.942.006,3.054,0,6.108-.021,9.161.008a5.106,5.106,0,0,0,4.216-1.922c2.1-2.5,4.268-4.952,6.413-7.42a2.981,2.981,0,0,1,3.6-.836,3.039,3.039,0,0,1,1.656,3.354,4.964,4.964,0,0,1-.992,2.247q-3.423,4.556-6.839,9.117a10.531,10.531,0,0,1-7.419,4.344,1.334,1.334,0,0,0-.233.072Z" transform="translate(-992.22 -395.7)" fill="none" stroke="#fff" stroke-width="2"/>
    </g>
    <g transform="matrix(1, 0, 0, 1, -426.33, 1181.92)" filter="url(#Path_387)">
      <path id="Path_387-2" data-name="Path 387" d="M192.542,195.032a24.249,24.249,0,0,1,1.831-1.864,6.418,6.418,0,0,1,7.992.024,7.793,7.793,0,0,1,1.829,9.6,16.932,16.932,0,0,1-3.763,4.585c-2.316,2.056-4.676,4.06-7.023,6.08a1.147,1.147,0,0,1-1.627.028c-2.578-2.239-5.172-4.461-7.711-6.744a13.664,13.664,0,0,1-3.32-4.393,7.751,7.751,0,0,1,2.066-9.18,6.446,6.446,0,0,1,8.513.463C191.773,194.087,192.163,194.593,192.542,195.032Z" transform="translate(-155.5 -184.78)" fill="none" stroke="#fff" stroke-width="2"/>
    </g>
  </g>
</svg>
