<svg width="29" height="33" viewBox="0 0 29 33" fill="none" xmlns="http://www.w3.org/2000/svg">
<path d="M18.771 3.98022L18.8068 4.07916H18.912H25.6C27.2772 4.07916 28.65 5.452 28.65 7.12916V29.5292C28.65 31.2063 27.2772 32.5792 25.6 32.5792H3.2C1.52284 32.5792 0.15 31.2063 0.15 29.5292V7.12916C0.15 5.452 1.52284 4.07916 3.2 4.07916H9.888H9.99322L10.029 3.98022C10.6808 2.18006 12.3868 0.879157 14.4 0.879157C16.4132 0.879157 18.1192 2.18006 18.771 3.98022ZM16.15 5.52916C16.15 4.56631 15.3628 3.77916 14.4 3.77916C13.4372 3.77916 12.65 4.56631 12.65 5.52916C12.65 6.492 13.4372 7.27916 14.4 7.27916C15.3628 7.27916 16.15 6.492 16.15 5.52916ZM8.4 10.1792C7.37827 10.1792 6.55 9.35088 6.55 8.32916V8.12916C6.55 7.49403 6.03513 6.97916 5.4 6.97916H4.2C3.56487 6.97916 3.05 7.49403 3.05 8.12916V28.5292C3.05 29.1643 3.56487 29.6792 4.2 29.6792H24.6C25.2351 29.6792 25.75 29.1643 25.75 28.5292V8.12916C25.75 7.49403 25.2351 6.97916 24.6 6.97916H23.4C22.7649 6.97916 22.25 7.49403 22.25 8.12916V8.32916C22.25 9.35088 21.4217 10.1792 20.4 10.1792H8.4Z" fill="white" stroke="#81DC8F" stroke-width="0.3"/>
<g opacity="0.35">
<path d="M8.00002 13.5292V18.3292H9.60002V11.9292H6.40002V13.5292H8.00002Z" fill="white"/>
<path d="M11.2 22.7292C11.2 22.0732 10.656 21.5292 10 21.5292H6.40002V23.1292H9.60002L6.40002 26.4572V27.9292H11.2V26.3292H8.19202L10.864 23.5612C11.072 23.3532 11.2 23.0492 11.2 22.7292Z" fill="white"/>
</g>
<g opacity="0.65">
<path d="M20.8 23.1292H16C15.1164 23.1292 14.4 23.8455 14.4 24.7292C14.4 25.6128 15.1164 26.3292 16 26.3292H20.8C21.6837 26.3292 22.4 25.6128 22.4 24.7292C22.4 23.8455 21.6837 23.1292 20.8 23.1292Z" fill="white"/>
<path d="M20.8 13.5292H16C15.1164 13.5292 14.4 14.2455 14.4 15.1292C14.4 16.0128 15.1164 16.7292 16 16.7292H20.8C21.6837 16.7292 22.4 16.0128 22.4 15.1292C22.4 14.2455 21.6837 13.5292 20.8 13.5292Z" fill="white"/>
</g>
</svg>
