<svg width="30" height="33" viewBox="0 0 30 33" fill="none" xmlns="http://www.w3.org/2000/svg">
<path d="M15.2895 0.435755L28.6437 8.44732C28.7566 8.51491 28.85 8.61061 28.9149 8.72508C28.9798 8.83956 29.0139 8.9689 29.0139 9.10049C29.0139 9.23207 28.9798 9.36141 28.9149 9.47589C28.85 9.59036 28.7566 9.68606 28.6437 9.75365L14.507 18.2357L0.370242 9.75365C0.25734 9.68606 0.163886 9.59036 0.0989974 9.47589C0.0341082 9.36141 0 9.23207 0 9.10049C0 8.9689 0.0341082 8.83956 0.0989974 8.72508C0.163886 8.61061 0.25734 8.51491 0.370242 8.44732L13.7228 0.435755C13.9597 0.293485 14.2307 0.218323 14.507 0.218323C14.7832 0.218323 15.0543 0.293485 15.2911 0.435755H15.2895Z" fill="white"/>
<path opacity="0.65" d="M28.6437 15.5271L26.8136 14.4293L14.507 21.8136L2.20033 14.4293L0.370242 15.5271C0.25734 15.5947 0.163886 15.6904 0.0989974 15.8049C0.0341082 15.9193 0 16.0487 0 16.1803C0 16.3118 0.0341082 16.4412 0.0989974 16.5557C0.163886 16.6701 0.25734 16.7658 0.370242 16.8334L14.507 25.3155L28.6437 16.8334C28.7566 16.7658 28.85 16.6701 28.9149 16.5557C28.9798 16.4412 29.0139 16.3118 29.0139 16.1803C29.0139 16.0487 28.9798 15.9193 28.9149 15.8049C28.85 15.6904 28.7566 15.5947 28.6437 15.5271Z" fill="white"/>
<path opacity="0.35" d="M28.6437 22.683L26.8136 21.5853L14.507 28.9695L2.20033 21.5853L0.370242 22.683C0.25734 22.7506 0.163886 22.8463 0.0989974 22.9608C0.0341082 23.0752 0 23.2046 0 23.3362C0 23.4677 0.0341082 23.5971 0.0989974 23.7116C0.163886 23.826 0.25734 23.9217 0.370242 23.9893L13.7228 32.0009C13.9597 32.1432 14.2307 32.2183 14.507 32.2183C14.7832 32.2183 15.0543 32.1432 15.2911 32.0009L28.6437 23.9893C28.7566 23.9217 28.85 23.826 28.9149 23.7116C28.9798 23.5971 29.0139 23.4677 29.0139 23.3362C29.0139 23.2046 28.9798 23.0752 28.9149 22.9608C28.85 22.8463 28.7566 22.7506 28.6437 22.683Z" fill="white"/>
</svg>
