<svg width="42" height="42" viewBox="0 0 42 42" fill="none" xmlns="http://www.w3.org/2000/svg">
<path d="M7.1076 29.5633L2.42405 34.1532C1.79123 34.7734 0.724121 34.325 0.724121 33.439V18.8603C0.724121 18.308 1.17184 17.8603 1.72412 17.8603H7.1076M17.7467 25.6481L15.0812 23.3731C14.696 23.0443 14.1259 23.0554 13.7538 23.3989L13.0415 24.0564C12.401 24.6477 11.3633 24.1933 11.3633 23.3216V10.349C11.3633 9.79667 11.811 9.34895 12.3633 9.34895H17.7467M28.3859 22.1159L23.7095 26.7923C23.0795 27.4223 22.0024 26.9761 22.0024 26.0852V1.83765C22.0024 1.28536 22.4501 0.837646 23.0024 0.837646H28.3859M34.3651 21.7116L32.2208 19.5674C31.5908 18.9374 32.037 17.8603 32.9279 17.8603H40.1528C40.7051 17.8603 41.1528 18.308 41.1528 18.8603V26.0852C41.1528 26.9761 40.0757 27.4223 39.4457 26.7923L38.0482 25.3947C37.6588 25.0054 37.0279 25.0041 36.6369 25.3918L22.6621 39.2503C22.2902 39.6191 21.6966 39.6384 21.3015 39.2945L15.3114 34.0812C14.9197 33.7404 14.3323 33.756 13.9593 34.1171L6.86646 40.9848C6.67993 41.1654 6.43048 41.2664 6.17085 41.2664H3.17341C2.27761 41.2664 1.83369 40.1791 2.47352 39.5521L13.8414 28.4127C14.2097 28.0517 14.7922 28.0301 15.1863 28.3628L22.0024 34.1169" fill="white"/>
</svg>
