<svg width="26" height="33" viewBox="0 0 26 33" fill="none" xmlns="http://www.w3.org/2000/svg">
<path d="M4.78818 15.3965C5.20702 15.4048 5.47508 15.6303 5.72639 15.8892C6.04471 16.2148 6.04471 16.2065 6.37141 15.8975C6.86565 15.4215 7.36826 14.9456 7.86249 14.478C8.28972 14.0772 8.86772 14.0521 9.24468 14.4195C9.63002 14.7953 9.62164 15.3965 9.18604 15.814C8.36511 16.6156 7.52742 17.4005 6.68973 18.1771C6.27926 18.5612 5.76827 18.5612 5.35781 18.1854C4.93896 17.8013 4.5285 17.3922 4.14316 16.9663C3.88348 16.6824 3.79971 16.3317 3.97562 15.9476C4.14316 15.5969 4.44473 15.4382 4.78818 15.3965Z" fill="white"/>
<path opacity="0.5" d="M19.9838 10.1109C19.7828 9.74347 19.4477 9.64327 19.0624 9.64327C17.0352 9.64327 15.008 9.64327 12.9808 9.64327C12.763 9.64327 12.5452 9.63492 12.3274 9.64327C11.8918 9.66832 11.5064 10.0023 11.431 10.4198C11.3556 10.8206 11.5986 11.2465 12.0007 11.4219C12.319 11.5638 12.6624 11.4887 12.9891 11.5054C14.2959 11.5054 15.6027 11.5054 16.9095 11.5054C17.6718 11.5054 18.4341 11.5137 19.1964 11.497C19.9336 11.5054 20.344 10.7705 19.9838 10.1109Z" fill="white"/>
<path d="M21.8519 13.7432C21.6341 13.4509 21.3241 13.4008 20.989 13.4008C18.3168 13.4008 15.6446 13.4008 12.9808 13.4008C12.763 13.4008 12.5452 13.3925 12.3274 13.4008C11.8918 13.4259 11.5064 13.7599 11.431 14.1774C11.3556 14.5782 11.5986 15.004 12.0007 15.1794C12.319 15.3213 12.6624 15.2462 12.9891 15.2629C15.6111 15.2629 18.2247 15.2629 20.8466 15.2629C20.9472 15.2629 21.0561 15.2712 21.1566 15.2629C21.5335 15.2295 21.8267 15.0625 21.9859 14.7034C22.1367 14.3527 22.078 14.0354 21.8519 13.7432Z" fill="white"/>
<path opacity="0.5" d="M20.1179 17.9433C20.0425 17.4423 19.6739 17.15 19.0875 17.15C17.0519 17.15 15.0163 17.15 12.9808 17.15C12.763 17.15 12.5452 17.1417 12.3274 17.15C11.8918 17.1751 11.5064 17.5091 11.431 17.9266C11.3556 18.3274 11.5986 18.7532 12.0007 18.9286C12.319 19.0705 12.6624 18.9954 12.9891 19.0121C13.7933 19.0121 14.5975 19.0121 15.4017 19.0121C16.6582 19.0121 17.9064 19.0204 19.1629 19.0121C19.7744 19.0121 20.2016 18.5278 20.1179 17.9433Z" fill="white"/>
<path d="M16.2058 21.4671C16.0299 21.1331 15.7367 20.9661 15.3598 20.9661C14.564 20.9577 13.7766 20.9661 12.9808 20.9577C12.763 20.9577 12.5452 20.9494 12.3274 20.9577C11.8918 20.9828 11.5064 21.3168 11.431 21.7343C11.3556 22.1351 11.5986 22.561 12.0007 22.7363C12.319 22.8783 12.6624 22.8031 12.9891 22.8198C13.7598 22.8198 14.5305 22.8198 15.3095 22.8198C15.6697 22.8198 15.9713 22.7113 16.1723 22.4023C16.3483 22.11 16.365 21.7844 16.2058 21.4671Z" fill="white"/>
<path opacity="0.5" d="M14.4132 24.7069C13.9357 24.6986 13.4582 24.7069 12.9808 24.7069C12.763 24.7069 12.5452 24.6986 12.3274 24.7069C11.8918 24.732 11.5064 25.066 11.431 25.4835C11.3556 25.8843 11.5986 26.3102 12.0007 26.4855C12.319 26.6275 12.6624 26.5523 12.9891 26.569C13.4666 26.569 13.9441 26.569 14.4216 26.569C14.9996 26.5607 15.4184 26.1682 15.4268 25.6338C15.4184 25.1495 14.9577 24.7153 14.4132 24.7069Z" fill="white"/>
<path d="M21.9776 6.4702C21.7933 6.02764 21.4414 5.90239 20.9975 5.90239C18.3252 5.90239 15.653 5.90239 12.9808 5.90239C12.763 5.90239 12.5452 5.89404 12.3274 5.90239C11.8332 5.92744 11.4143 6.3533 11.4143 6.83761C11.4143 7.31357 11.8248 7.74778 12.3274 7.77283C12.5452 7.78118 12.763 7.77283 12.9808 7.77283C15.3682 7.77283 17.764 7.77283 20.1514 7.77283C20.4865 7.77283 20.8215 7.78118 21.1566 7.76448C21.81 7.73943 22.2205 7.07142 21.9776 6.4702Z" fill="white"/>
<path opacity="0.35" d="M6.68135 11.522C6.09497 11.522 5.50858 11.522 4.93058 11.522C4.28556 11.5137 3.89185 11.1296 3.89185 10.4866C3.89185 9.30089 3.89185 8.11517 3.89185 6.92944C3.89185 6.28648 4.28556 5.90237 4.93058 5.90237C6.1201 5.90237 7.30961 5.90237 8.49913 5.90237C9.14415 5.90237 9.52949 6.28648 9.52949 6.93779C9.52949 8.12352 9.53786 9.30924 9.52949 10.495C9.52949 11.1463 9.14415 11.522 8.49075 11.522C7.88762 11.5304 7.28448 11.522 6.68135 11.522Z" fill="white"/>
<path opacity="0.35" d="M6.72323 20.9577C7.30961 20.9577 7.89599 20.9577 8.474 20.9577C9.14415 20.9577 9.52949 21.3335 9.52949 21.9931C9.52949 23.1788 9.53786 24.3646 9.52949 25.5503C9.52949 26.1933 9.14415 26.5774 8.49075 26.5774C7.30124 26.5774 6.11172 26.5857 4.9222 26.5774C4.27718 26.5774 3.89185 26.1849 3.89185 25.5419C3.89185 24.3562 3.89185 23.1705 3.89185 21.9848C3.89185 21.3418 4.28556 20.9661 4.93058 20.9577C4.93896 20.9577 4.94733 20.9577 4.96409 20.9577C5.55047 20.9577 6.13685 20.9577 6.72323 20.9577Z" fill="white"/>
<rect x="1" y="1.23987" width="23.952" height="30" rx="2" stroke="white" stroke-width="2"/>
</svg>
