<svg xmlns="http://www.w3.org/2000/svg" xmlns:xlink="http://www.w3.org/1999/xlink" width="59.972" height="74.238" viewBox="0 0 59.972 74.238">
  <defs>
    <filter id="Path_122" x="0" y="0" width="59.972" height="74.238" filterUnits="userSpaceOnUse">
      <feOffset dy="2" input="SourceAlpha"/>
      <feGaussianBlur stdDeviation="2.5" result="blur"/>
      <feFlood flood-opacity="0.161"/>
      <feComposite operator="in" in2="blur"/>
      <feComposite in="SourceGraphic"/>
    </filter>
  </defs>
  <g id="Group_1290" data-name="Group 1290" transform="translate(8.5 6.5)">
    <path id="Path_121" data-name="Path 121" d="M113.86,213.3a7.155,7.155,0,1,0,7.16,7.155A7.164,7.164,0,0,0,113.86,213.3Zm4.419,5.612-4.777,4.774a1.177,1.177,0,0,1-.839.347,1.159,1.159,0,0,1-.839-.347l-2.383-2.381a1.194,1.194,0,0,1,1.689-1.688l1.544,1.543,3.927-3.924a1.186,1.186,0,1,1,1.678,1.677Z" transform="translate(-94.762 -189.455)" fill="#fff"/>
    <g transform="matrix(1, 0, 0, 1, -8.5, -6.5)" filter="url(#Path_122)">
      <path id="Path_122-2" data-name="Path 122" d="M38.184,4.774H33.407a1.065,1.065,0,0,0-.2.045,3.567,3.567,0,0,0-3.379-2.426h-3.6a5.907,5.907,0,0,0-9.487-.011h-3.6A3.589,3.589,0,0,0,9.756,4.807a1.3,1.3,0,0,0-.2-.045H4.777A4.787,4.787,0,0,0,0,9.536V52.464a4.773,4.773,0,0,0,4.777,4.774H38.2a4.78,4.78,0,0,0,4.777-4.774V9.536A4.787,4.787,0,0,0,38.184,4.774ZM11.937,5.959a1.2,1.2,0,0,1,1.2-1.2h4.24A1.184,1.184,0,0,0,18.4,4.17a3.54,3.54,0,0,1,6.153,0,1.184,1.184,0,0,0,1.029.593h4.24a1.2,1.2,0,0,1,1.2,1.2v1.2a2.384,2.384,0,0,1-2.383,2.381H14.32a2.384,2.384,0,0,1-2.383-2.381Zm21.122,39a1.177,1.177,0,0,1-.839.347,1.159,1.159,0,0,1-.839-.347l-6.455-6.45a9.65,9.65,0,1,1,1.689-1.688l6.455,6.45A1.2,1.2,0,0,1,33.06,44.963Z" transform="translate(8.5 6.5)" fill="none" stroke="#fff" stroke-width="2"/>
    </g>
  </g>
</svg>
