<svg width="34" height="32" viewBox="0 0 34 32" fill="none" xmlns="http://www.w3.org/2000/svg">
<path opacity="0.35" d="M22.9975 23.6453H5.14046C4.34481 23.6453 3.58175 23.9614 3.01914 24.524L3.6955 25.2004L3.01914 24.524L2.70711 24.8361C2.07714 25.466 1 25.0198 1 24.1289V4.52251C1 2.70318 2.4927 1.21048 4.31203 1.21048H22.9975C24.8168 1.21048 26.3095 2.70318 26.3095 4.52251V20.3333C26.3095 22.1526 24.8168 23.6453 22.9975 23.6453Z" stroke="white" stroke-width="2"/>
<path fill-rule="evenodd" clip-rule="evenodd" d="M29.283 29.6737H11.426C10.8955 29.6737 10.3868 29.8844 10.0118 30.2595L9.69974 30.5715C8.43981 31.8315 6.28552 30.9391 6.28552 29.1573V9.5509C6.28552 7.17928 8.22594 5.23886 10.5976 5.23886H29.283C31.6547 5.23886 33.5951 7.17928 33.5951 9.5509V25.3617C33.5951 27.7333 31.6547 29.6737 29.283 29.6737ZM18.503 15.3003H21.3777V23.2057H18.503V15.3003ZM18.924 12.7233C18.6544 12.4537 18.503 12.0881 18.503 11.7069C18.503 11.3257 18.6544 10.9601 18.924 10.6906C19.1935 10.421 19.5591 10.2696 19.9403 10.2696C20.3216 10.2696 20.6871 10.421 20.9567 10.6906C21.2263 10.9601 21.3777 11.3257 21.3777 11.7069C21.3777 12.0881 21.2263 12.4537 20.9567 12.7233C20.6871 12.9928 20.3216 13.1443 19.9403 13.1443C19.5591 13.1443 19.1935 12.9928 18.924 12.7233Z" fill="white"/>
</svg>
