<svg xmlns="http://www.w3.org/2000/svg" xmlns:xlink="http://www.w3.org/1999/xlink" width="59.972" height="59.94" viewBox="0 0 59.972 59.94">
  <defs>
    <filter id="Path_205" x="0" y="0" width="59.972" height="59.94" filterUnits="userSpaceOnUse">
      <feOffset dy="2" input="SourceAlpha"/>
      <feGaussianBlur stdDeviation="2.5" result="blur"/>
      <feFlood flood-opacity="0.161"/>
      <feComposite operator="in" in2="blur"/>
      <feComposite in="SourceGraphic"/>
    </filter>
    <filter id="Intersection_5" x="16.837" y="9.168" width="26.454" height="41.354" filterUnits="userSpaceOnUse">
      <feOffset dy="2" input="SourceAlpha"/>
      <feGaussianBlur stdDeviation="2.5" result="blur-2"/>
      <feFlood flood-opacity="0.161"/>
      <feComposite operator="in" in2="blur-2"/>
      <feComposite in="SourceGraphic"/>
    </filter>
  </defs>
  <g id="Group_1287" data-name="Group 1287" transform="translate(379.007 -498.077)">
    <g transform="matrix(1, 0, 0, 1, -379.01, 498.08)" filter="url(#Path_205)">
      <path id="Path_205-2" data-name="Path 205" d="M21.372,0a21.47,21.47,0,0,0,0,42.94,21.47,21.47,0,1,0,0-42.94Z" transform="translate(8.5 6.5)" fill="none" stroke="#fff" stroke-width="2"/>
    </g>
    <g transform="matrix(1, 0, 0, 1, -379.01, 498.08)" filter="url(#Intersection_5)">
      <path id="Intersection_5-2" data-name="Intersection 5" d="M2.729,25.446a3.647,3.647,0,0,1-1.137-2.5V21.811c0-.454.227-.909.227-1.363l1.364-5a2.88,2.88,0,0,0,.227-1.363,9.836,9.836,0,0,1,.227-1.136,1.92,1.92,0,0,0-.455-1.363c.227,0-.455-.227-1.137-.227a2.05,2.05,0,0,0-1.137.227c-.227,0-.682.227-.91.227l.455-1.59a8.15,8.15,0,0,0,2.5-.909,10.01,10.01,0,0,1,2.274-.454,4.813,4.813,0,0,1,3.183.909,3.254,3.254,0,0,1,1.137,2.5V13.4c0,.454-.227,1.136-.227,1.363l-.534,1.754-.552,1.812-.505,1.659A8.026,8.026,0,0,0,7.5,21.356a9.841,9.841,0,0,1-.227,1.136,1.92,1.92,0,0,0,.455,1.363,2.176,2.176,0,0,0,1.592.454,2.473,2.473,0,0,0,1.137-.227,1.72,1.72,0,0,1,.909-.227l-.455,1.136c-1.137.454-2.046.682-2.728.909a6.73,6.73,0,0,1-2.274.454A4.813,4.813,0,0,1,2.729,25.446Zm3.41-20.22A2.386,2.386,0,0,1,5,3.181,2.915,2.915,0,0,1,5.912.909,2.92,2.92,0,0,1,8.185,0a2.92,2.92,0,0,1,2.274.909,2.915,2.915,0,0,1,.909,2.272,1.725,1.725,0,0,1-.682,2.045,5.107,5.107,0,0,1-1.679.87s-.366.039-.595.039A2.921,2.921,0,0,1,6.139,5.225Z" transform="translate(24.34 14.67)" fill="#fff"/>
    </g>
  </g>
</svg>
